<?xml version="1.0" encoding="UTF-8" standalone="no"?>
<!-- Created with Inkscape (http://www.inkscape.org/) -->

<svg
   xmlns:dc="http://purl.org/dc/elements/1.1/"
   xmlns:cc="http://creativecommons.org/ns#"
   xmlns:rdf="http://www.w3.org/1999/02/22-rdf-syntax-ns#"
   xmlns:svg="http://www.w3.org/2000/svg"
   xmlns="http://www.w3.org/2000/svg"
   xmlns:sodipodi="http://sodipodi.sourceforge.net/DTD/sodipodi-0.dtd"
   xmlns:inkscape="http://www.inkscape.org/namespaces/inkscape"
   width="381mm"
   height="165.80557mm"
   viewBox="0 0 381 165.80557"
   version="1.1"
   id="svg8"
   inkscape:version="0.92.4 (5da689c313, 2019-01-14)"
   sodipodi:docname="logo.svg">
  <defs
     id="defs2" />
  <sodipodi:namedview
     id="base"
     pagecolor="#ffffff"
     bordercolor="#666666"
     borderopacity="1.0"
     inkscape:pageopacity="0.0"
     inkscape:pageshadow="2"
     inkscape:zoom="0.0875"
     inkscape:cx="-1127.9228"
     inkscape:cy="108.13083"
     inkscape:document-units="mm"
     inkscape:current-layer="layer1"
     showgrid="false"
     fit-margin-top="0"
     fit-margin-left="0"
     fit-margin-right="0"
     fit-margin-bottom="0"
     inkscape:window-width="1366"
     inkscape:window-height="705"
     inkscape:window-x="-8"
     inkscape:window-y="-8"
     inkscape:window-maximized="1" />
  <metadata
     id="metadata5">
    <rdf:RDF>
      <cc:Work
         rdf:about="">
        <dc:format>image/svg+xml</dc:format>
        <dc:type
           rdf:resource="http://purl.org/dc/dcmitype/StillImage" />
        <dc:title></dc:title>
      </cc:Work>
    </rdf:RDF>
  </metadata>
  <g
     inkscape:label="Layer 1"
     inkscape:groupmode="layer"
     id="layer1"
     transform="translate(723.99242,-134.88248)">
    <g
       id="g826"
       transform="translate(-6.0476233,175.30255)" />
    <path
       inkscape:connector-curvature="0"
       id="path861"
       d="m -723.99242,217.78527 v -82.90279 h 190.5 190.5 v 82.90279 82.90278 h -190.5 -190.5 z m 247.47361,59.32623 c 1.93019,-0.70231 4.69545,-1.35902 7.05306,-1.67502 3.21685,-0.43115 4.45372,-0.78886 7.25429,-2.098 1.85692,-0.86802 3.56988,-1.57821 3.80658,-1.57821 0.69035,0 3.71861,-1.63239 5.70845,-3.07716 5.97936,-4.34143 10.70023,-8.72827 13.01307,-12.09229 0.46689,-0.6791 1.21106,-1.6316 1.65372,-2.11667 0.72599,-0.79555 1.82178,-2.62988 4.74167,-7.9375 0.5337,-0.97013 1.22806,-2.92088 1.54302,-4.33498 0.31495,-1.4141 1.16122,-3.9541 1.88059,-5.64445 l 1.30795,-3.07334 0.12562,-12.9406 c 0.14181,-14.60818 -0.0929,-17.58809 -1.68,-21.32598 -0.58768,-1.38412 -1.31234,-3.67572 -1.61035,-5.09243 -0.29802,-1.41671 -0.99212,-3.37988 -1.54245,-4.36259 -0.55033,-0.9827 -1.69727,-3.05577 -2.54875,-4.60681 -1.22925,-2.23919 -2.54451,-3.81943 -6.38534,-7.6718 -4.10661,-4.11894 -5.25217,-5.05864 -7.58472,-6.22165 -1.51114,-0.75345 -3.62065,-1.85415 -4.6878,-2.44598 -1.06716,-0.59184 -2.73403,-1.26964 -3.70417,-1.50621 -0.97014,-0.23657 -2.71639,-0.90503 -3.88056,-1.48545 -3.06224,-1.52677 -3.45409,-1.60032 -11.80655,-2.21616 -5.59063,-0.41221 -13.41761,-0.57519 -29.64483,-0.61729 l -22.04861,-0.0572 -1.56947,0.87924 c -0.8632,0.48359 -1.89508,1.43487 -2.29305,2.11397 -0.69908,1.19289 -0.72957,1.88068 -0.89998,20.30081 -0.1939,20.95895 -0.0995,20.09922 -2.37145,21.58663 -0.87897,0.57545 -2.48154,0.62447 -21.29251,0.65135 -23.09366,0.033 -21.86026,-0.12308 -23.60826,2.98758 -0.85279,1.51757 -0.88195,1.78617 -0.88195,8.1245 0,6.22781 0.0434,6.64761 0.86858,8.40947 1.4238,3.03989 1.99806,3.20355 11.24063,3.20355 7.25069,0 7.7842,0.0445 8.64496,0.7216 1.34277,1.05623 1.64306,2.691 1.64525,8.95665 0.002,6.04829 -0.54044,9.14828 -1.80078,10.28887 -1.17686,1.06504 -10.44063,1.5221 -17.60003,0.86835 -3.06224,-0.27962 -3.65574,-0.46389 -6.87916,-2.13583 -1.94028,-1.00639 -4.43686,-2.55169 -5.54795,-3.43401 -2.41053,-1.91418 -5.91422,-5.78346 -6.79545,-7.50452 -0.34772,-0.6791 -1.09379,-1.90945 -1.65795,-2.73412 -0.73837,-1.07934 -1.15987,-2.31473 -1.50455,-4.40972 -0.26334,-1.60068 -0.95899,-4.10095 -1.54587,-5.55616 -1.88982,-4.68594 -1.85194,-11.5622 0.0879,-15.94847 0.48376,-1.09387 1.14182,-3.3884 1.46235,-5.09897 0.42636,-2.27531 0.84428,-3.44258 1.55702,-4.3487 0.53583,-0.68122 1.33246,-1.95296 1.77028,-2.82608 1.99162,-3.97175 6.98687,-8.74544 12.17424,-11.63427 4.97884,-2.7727 4.98819,-2.77557 10.40694,-3.20503 2.81341,-0.22296 5.22949,-0.47421 5.36907,-0.55831 0.13959,-0.0841 2.28271,0.0128 4.7625,0.21526 2.47979,0.2025 6.49646,0.51452 8.92594,0.69338 4.12328,0.30355 4.61502,0.42085 7.38967,1.76263 2.58848,1.25177 3.28427,1.43745 5.38641,1.43745 3.1235,0 4.91376,-0.86232 5.93135,-2.85695 0.6923,-1.35701 0.72666,-1.9072 0.62211,-9.96123 -0.10827,-8.34097 -0.12971,-8.5589 -0.99361,-10.10172 -1.06684,-1.90526 -3.00434,-3.08693 -5.46491,-3.33302 -0.97131,-0.0971 -3.45868,-0.34734 -5.52747,-0.55598 -2.0688,-0.20865 -5.16443,-0.80769 -6.87917,-1.33121 -3.05468,-0.93259 -3.31031,-0.95196 -12.64272,-0.95795 -9.47567,-0.006 -9.54033,-0.001 -12.48389,0.97359 -1.777,0.58837 -4.785,1.19251 -7.53059,1.51249 -4.03495,0.47024 -4.89024,0.69295 -7.28477,1.8969 -1.49219,0.75026 -3.42066,1.55464 -4.28549,1.78751 -3.71204,0.99956 -7.98121,3.88813 -15.1023,10.21841 -2.67776,2.38039 -6.76808,7.03827 -8.26499,9.41181 -2.30819,3.65991 -3.82841,6.48665 -4.43252,8.24189 -0.36621,1.06404 -1.23179,3.05822 -1.92351,4.43151 -1.11513,2.21388 -1.31959,3.05935 -1.80393,7.45951 -0.30043,2.72945 -0.86783,6.40636 -1.26088,8.17091 -0.97881,4.39427 -0.97881,10.85668 0,15.25094 0.39305,1.76455 0.95388,5.45381 1.2463,8.19835 0.46214,4.33748 0.68809,5.31302 1.72775,7.45952 0.65784,1.35819 1.53562,3.34257 1.95061,4.40972 0.415,1.06715 1.35749,2.97215 2.09443,4.23333 0.73695,1.26119 1.75253,3.02473 2.25685,3.91898 0.50516,0.89575 3.19766,3.82664 5.99555,6.52639 4.07624,3.93327 5.82242,5.34283 8.8473,7.14178 2.07279,1.23272 4.68438,2.51855 5.80354,2.8574 1.11916,0.33886 3.2165,1.18897 4.66075,1.88915 2.42234,1.17435 3.07713,1.31779 8.44673,1.8503 3.20146,0.31749 7.09084,0.80013 8.64306,1.07254 3.24939,0.57024 12.94201,0.66624 15.63837,0.15489 2.71642,-0.51516 7.09841,-1.00619 12.5229,-1.40328 4.39405,-0.32167 5.14645,-0.47805 7.58472,-1.57642 1.48873,-0.67063 3.97679,-1.5569 5.52901,-1.9695 1.55222,-0.41259 3.3628,-1.06706 4.02351,-1.45439 1.45257,-0.85152 1.62709,-0.65696 1.94699,2.17057 0.29037,2.56656 1.32435,4.15799 3.38096,5.20378 l 1.58465,0.8058 22.93056,-0.11021 22.93055,-0.1102 z m -23.03157,-22.26595 c -2.9648,-0.48203 -2.7104,2.61285 -2.80809,-34.16237 -0.0542,-20.41455 0.0402,-32.90652 0.25126,-33.23681 0.43755,-0.68475 9.54007,-0.90776 16.94534,-0.41516 l 5.11528,0.34027 3.88055,1.91265 c 3.50101,1.72558 4.88646,2.60346 8.53365,5.40727 1.81642,1.39638 4.78466,5.69204 6.81638,9.8647 l 1.8895,3.88055 0.34907,5.60675 c 0.23622,3.79411 0.22996,7.40252 -0.0194,11.16135 l -0.36843,5.55462 -1.98624,4.27665 c -1.09244,2.35217 -2.83833,5.42581 -3.87975,6.83032 -2.0472,2.76094 -5.493,5.87575 -7.78512,7.03729 -0.78817,0.39942 -2.07178,1.18228 -2.85247,1.7397 -1.00479,0.71743 -2.2499,1.1595 -4.26237,1.51333 -1.56361,0.2749 -3.86174,0.91855 -5.10695,1.43032 -3.32505,1.36656 -10.35115,1.96762 -14.71225,1.25857 z"
       style="fill:#1a1a1a;fill-opacity:1;stroke-width:0.35277778" />
  </g>
</svg>
