<?xml version="1.0" encoding="UTF-8" standalone="no"?>
<!-- Created with Inkscape (http://www.inkscape.org/) -->

<svg
   xmlns:dc="http://purl.org/dc/elements/1.1/"
   xmlns:cc="http://creativecommons.org/ns#"
   xmlns:rdf="http://www.w3.org/1999/02/22-rdf-syntax-ns#"
   xmlns:svg="http://www.w3.org/2000/svg"
   xmlns="http://www.w3.org/2000/svg"
   xmlns:sodipodi="http://sodipodi.sourceforge.net/DTD/sodipodi-0.dtd"
   xmlns:inkscape="http://www.inkscape.org/namespaces/inkscape"
   width="220.35002mm"
   height="219.92459mm"
   viewBox="0 0 220.35002 219.92459"
   version="1.1"
   id="svg1316"
   inkscape:version="0.92.4 (5da689c313, 2019-01-14)"
   sodipodi:docname="phone.svg">
  <defs
     id="defs1310" />
  <sodipodi:namedview
     id="base"
     pagecolor="#ffffff"
     bordercolor="#666666"
     borderopacity="1.0"
     inkscape:pageopacity="0.0"
     inkscape:pageshadow="2"
     inkscape:zoom="0.35"
     inkscape:cx="856.38154"
     inkscape:cy="464.13484"
     inkscape:document-units="mm"
     inkscape:current-layer="layer1"
     showgrid="false"
     fit-margin-top="0"
     fit-margin-left="0"
     fit-margin-right="0"
     fit-margin-bottom="0"
     inkscape:window-width="1366"
     inkscape:window-height="705"
     inkscape:window-x="-8"
     inkscape:window-y="-8"
     inkscape:window-maximized="1" />
  <metadata
     id="metadata1313">
    <rdf:RDF>
      <cc:Work
         rdf:about="">
        <dc:format>image/svg+xml</dc:format>
        <dc:type
           rdf:resource="http://purl.org/dc/dcmitype/StillImage" />
        <dc:title></dc:title>
      </cc:Work>
    </rdf:RDF>
  </metadata>
  <g
     inkscape:label="Layer 1"
     inkscape:groupmode="layer"
     id="layer1"
     transform="translate(256.82238,-51.711083)">
    <path
       inkscape:connector-curvature="0"
       id="path1874"
       d="m -97.79504,271.5454 c -0.58208,-0.0815 -2.96333,-0.39413 -5.29167,-0.69469 -2.32833,-0.30056 -5.2652,-0.84136 -6.52638,-1.20177 -1.26118,-0.36042 -2.84869,-0.7683 -3.52778,-0.90642 -1.59176,-0.32373 -8.5869,-2.65377 -11.99445,-3.99527 -5.68768,-2.23916 -6.53843,-2.59301 -6.87916,-2.8612 -0.19403,-0.15271 -1.86091,-0.96589 -3.70417,-1.80707 -3.35575,-1.5314 -13.35332,-6.94916 -16.10222,-8.72591 -0.80408,-0.51972 -2.9472,-1.87102 -4.7625,-3.0029 -1.81531,-1.13189 -3.93556,-2.52279 -4.71167,-3.09091 -0.77611,-0.56811 -2.52236,-1.78269 -3.88055,-2.69905 -1.3582,-0.91637 -3.50132,-2.47928 -4.7625,-3.47314 -1.26119,-0.99387 -3.48369,-2.71191 -4.93889,-3.81787 -3.30922,-2.515 -12.99723,-10.80297 -16.73669,-14.31801 -9.81168,-9.22284 -21.83878,-22.068 -27.62129,-29.50003 -0.43445,-0.55839 -1.8632,-2.39046 -3.175,-4.07128 -14.89554,-19.08576 -26.99101,-41.51633 -31.32163,-58.08468 -0.47227,-1.80683 -0.93909,-3.41527 -1.03738,-3.57431 -0.0983,-0.15903 -0.59856,-2.80821 -1.11171,-5.88707 -1.19719,-7.18301 -1.25066,-12.59744 -0.1731,-17.52924 1.2436,-5.691797 2.57265,-7.652945 10.69769,-15.785525 9.77074,-9.779801 14.36857,-12.642374 21.28823,-13.253889 4.71061,-0.416293 11.52348,2.234763 15.53922,6.046695 0.40825,0.387532 1.65886,1.577728 2.77912,2.644881 2.5195,2.400054 7.80815,8.98736 10.63959,13.252211 2.79832,4.214954 5.59485,9.967257 6.3361,13.032987 0.70204,2.90357 0.78534,7.80706 0.17075,10.05091 -0.53029,1.93607 -2.29304,5.44296 -3.45784,6.87917 -1.82659,2.2522 -4.9941,5.71259 -7.97344,8.71073 -1.70982,1.72061 -3.4129,3.79833 -3.78462,4.61716 -0.90514,1.99388 -0.90045,5.50963 0.0112,8.41898 0.74976,2.3926 3.08161,7.21645 4.75026,9.82674 2.98623,4.67139 9.32607,12.82494 13.44093,17.28611 12.31811,13.35482 21.00906,21.8839 29.26041,28.71543 0.58209,0.48192 2.37332,1.97732 3.98052,3.32311 1.6072,1.34579 4.1472,3.28514 5.64445,4.30966 1.49724,1.02453 3.171,2.23468 3.71946,2.68923 0.54846,0.45456 1.17097,0.82646 1.38333,0.82646 0.21238,0 0.63676,0.22618 0.94308,0.50262 1.22527,1.10574 6.34444,3.48457 10.22278,4.75043 1.56491,0.51077 5.25337,0.50106 6.77388,-0.0178 1.61629,-0.55159 2.23248,-1.05981 7.56125,-6.2364 5.18251,-5.03449 6.57891,-6.19306 9.34805,-7.75586 2.50362,-1.41296 7.72418,-2.67659 9.86626,-2.38811 2.78916,0.37561 7.41993,1.65511 9.16813,2.53317 0.93173,0.46799 1.80117,0.85088 1.93209,0.85088 0.68119,0 10.2966,6.23405 11.09008,7.19013 0.26063,0.31404 0.63049,0.57098 0.82192,0.57098 0.19143,0 0.68793,0.30439 1.10333,0.67641 0.41541,0.37202 2.02528,1.78396 3.57751,3.13763 4.00707,3.49452 5.82592,5.47919 8.02011,8.75127 5.30004,7.9037 5.05003,15.06186 -0.83311,23.85321 -1.6197,2.42036 -4.05106,5.12278 -9.36588,10.41 -8.09793,8.05589 -9.58535,9.04214 -15.28362,10.13403 -3.03033,0.58067 -9.16456,0.96002 -11.1125,0.68722 z m 46.39028,-89.33832 c -3.77702,-1.2577 -5.18191,-2.37594 -6.9469,-5.5295 l -0.98721,-1.76389 -0.0212,-10.75973 c -0.0144,-7.32735 -0.16519,-11.43494 -0.47263,-12.87638 -0.70154,-3.28922 -2.48185,-9.76232 -3.00779,-10.93612 -0.26081,-0.58208 -0.73731,-1.87132 -1.05889,-2.86497 -1.57802,-4.87589 -7.57668,-15.41237 -12.62888,-22.18225 -5.34944,-7.16818 -16.29534,-18.097398 -23.6722,-23.636108 -9.60492,-7.211594 -20.61097,-12.656198 -31.28489,-15.476391 -5.15203,-1.361237 -8.7456,-1.735924 -15.52222,-1.618439 -12.38501,0.214719 -11.94704,0.242781 -14.2419,-0.912527 -2.85458,-1.437097 -4.64052,-3.556403 -5.56678,-6.605902 -0.66686,-2.195499 -0.70163,-2.702422 -0.33687,-4.911135 0.83272,-5.042345 3.61878,-8.103408 8.42335,-9.254799 9.92736,-2.379042 25.27708,-1.059152 39.23886,3.374066 1.84327,0.585282 3.66889,1.199855 4.05695,1.365717 0.38805,0.165862 2.22341,0.935096 4.07857,1.709407 3.50969,1.464888 7.8355,3.539655 10.56171,5.06566 0.87312,0.488735 2.30187,1.282375 3.175,1.763644 5.21014,2.871845 16.15476,11.02968 21.19648,15.799309 5.35018,5.061448 9.14491,8.981381 12.30817,12.714278 1.06207,1.253328 2.02578,2.358154 2.14156,2.455167 0.59964,0.502416 6.12576,8.043613 8.14315,11.112503 2.2225,3.38092 5.87238,9.69557 6.64238,11.492 0.20162,0.47037 0.51968,1.09334 0.7068,1.38438 1.78655,2.77874 5.62396,13.36232 7.35486,20.28473 3.24182,12.96506 3.55883,28.92016 0.69564,35.01135 -2.20853,4.69843 -8.21436,7.3812 -12.97515,5.79593 z m -40.88447,-10.34642 c -3.23357,-0.52191 -6.04883,-2.67283 -7.81309,-5.96939 -0.52428,-0.97961 -1.70864,-5.25236 -2.14394,-7.73453 -0.9545,-5.44269 -4.91334,-14.04863 -8.91192,-19.37318 -4.46874,-5.95063 -10.59577,-11.57371 -16.53298,-15.17317 -4.79449,-2.90667 -11.6421,-5.55528 -16.49416,-6.37983 -2.21718,-0.37678 -5.80254,-1.47389 -7.21202,-2.20685 -1.34759,-0.70077 -3.28641,-2.77775 -4.2845,-4.58982 -0.90423,-1.64165 -1.01549,-2.18842 -1.02096,-5.01742 -0.007,-3.63669 0.73669,-5.580187 3.06502,-8.009584 4.42493,-4.617026 11.65875,-4.271945 26.03017,1.241732 5.80367,2.226612 14.09146,6.780062 18.04109,9.912092 0.51069,0.40497 1.44342,1.13319 2.07273,1.61826 3.93598,3.03383 10.48584,9.56936 12.52097,12.49359 0.38806,0.55759 1.10872,1.50682 1.60146,2.1094 1.63763,2.00268 4.82951,7.07911 6.57624,10.459 3.2056,6.20279 5.14765,11.48642 6.83967,18.60838 1.33399,5.61495 1.37902,8.79885 0.16333,11.54775 -1.50549,3.40418 -4.5452,5.9318 -7.63949,6.3525 -0.84919,0.11546 -1.86148,0.25677 -2.24954,0.31403 -0.38806,0.0573 -1.56169,-0.0341 -2.60808,-0.20296 z"
       style="fill:#333333;fill-opacity:1;stroke-width:0.35277781" />
  </g>
</svg>
